<svg width="40" height="40" viewBox="0 0 40 40" fill="none" xmlns="http://www.w3.org/2000/svg">
<path d="M23.8847 26.5671L26.1013 24.3502C26.4425 24.0051 26.8487 23.7307 27.2963 23.5437C27.7442 23.3567 28.2245 23.2606 28.7097 23.2606C29.195 23.2606 29.6753 23.3567 30.1232 23.5437C30.5708 23.7307 30.977 24.0051 31.318 24.3502L33.918 26.9504C34.2632 27.2914 34.5373 27.6972 34.7243 28.1451C34.9113 28.5927 35.0077 29.0734 35.0077 29.5586C35.0077 30.0439 34.9113 30.5244 34.7243 30.9722C34.5373 31.4199 34.2632 31.8257 33.918 32.1667L32.7347 33.3667C31.9193 34.1901 30.8648 34.7351 29.7215 34.9236C28.5782 35.1121 27.4045 34.9349 26.368 34.4169C17.4485 29.8254 10.1835 22.5661 5.58473 13.6504C5.06628 12.6128 4.89025 11.4374 5.08192 10.2935C5.27358 9.14946 5.82308 8.0956 6.65143 7.28361L7.8347 6.08366C8.52792 5.39463 9.46563 5.00781 10.443 5.00781C11.4204 5.00781 12.3581 5.39463 13.0514 6.08366L15.668 8.70043C16.3571 9.39366 16.7438 10.3313 16.7438 11.3087C16.7438 12.2861 16.3571 13.2237 15.668 13.9169L13.4513 16.1337C14.917 18.1162 16.527 19.9877 18.268 21.7334C19.999 23.4674 21.86 25.0667 23.8347 26.5171L23.8847 26.5671Z" stroke="white" stroke-width="1.5" stroke-linecap="round" stroke-linejoin="round"/>
</svg>
