<svg width="244" height="217" viewBox="0 0 244 217" fill="none" xmlns="http://www.w3.org/2000/svg">
<g clip-path="url(#clip0_296_28)">
<path d="M122 0C116.832 0.0423828 112.13 2.9668 109.885 7.62891L82.6042 63.7014L21.7737 72.6865C16.6903 73.4494 12.4542 77.0096 10.8869 81.8836C9.31951 86.7576 10.5903 92.1402 14.2334 95.7428L58.3737 139.439L47.9528 201.191C47.1056 206.277 49.2237 211.448 53.4174 214.457C57.6112 217.466 63.1605 217.848 67.7355 215.432L122 186.4V0ZM182.11 217C182.576 217.042 183 217.042 183.466 217H182.11Z" fill="#FFD233"/>
<path d="M122.042 0C127.21 0.0423828 131.912 2.9668 134.157 7.62891L161.438 63.7014L222.268 72.6865C227.352 73.4494 231.588 77.0096 233.155 81.8836C234.722 86.7576 233.452 92.1402 229.809 95.7428L185.668 139.439L196.089 201.191C196.936 206.277 194.818 211.448 190.625 214.457C186.431 217.466 180.882 217.848 176.307 215.432L122.042 186.4V0ZM61.9315 217C61.4655 217.042 61.0419 217.042 60.576 217H61.9315Z" fill="#FAFAFA"/>
</g>
<defs>
<clipPath id="clip0_296_28">
<rect width="244" height="217" fill="white"/>
</clipPath>
</defs>
</svg>
